<svg xmlns="http://www.w3.org/2000/svg" width="102.243" height="115.147" viewBox="0 0 102.243 115.147">
  <g id="Group_26" data-name="Group 26" transform="translate(-1355 -220)">
    <rect id="Rectangle_78" data-name="Rectangle 78" width="14.014" height="50.025" transform="translate(1382.008 266.213)" fill="#ff7a53"/>
    <rect id="Rectangle_79" data-name="Rectangle 79" width="14.014" height="14.014" transform="translate(1417.418 266.213)" fill="#ff7a53"/>
    <g id="Group_25" data-name="Group 25" transform="translate(1355 220)">
      <g id="Group_11" data-name="Group 11" transform="translate(0 0)">
        <path id="Subtraction_1" data-name="Subtraction 1" d="M51.127,115.147h0l-.006,0-.006,0-.005-.009L0,86.806.005,86.8V28.35L0,28.341,51.11.009,51.115,0l.006,0,.006,0,.005.009,51.11,28.331-.005.009V86.8l.005.009-51.11,28.331-.005.01ZM51.121,99.66h0l0,0,0-.007L88.494,78.944l0-.007V36.209l0-.007L51.13,15.491l0-.007,0,0,0,0,0,.007L13.749,36.2l0,.007V78.937l0,.007L51.113,99.656l0,.007,0,0Z" transform="translate(0)" fill="#ff7a53"/>
      </g>
      <rect id="Rectangle_80" data-name="Rectangle 80" width="13.804" height="25.808" transform="translate(90.701 25.808) rotate(-180)" fill="#ff7a53"/>
    </g>
  </g>
</svg>
