<svg id="essiv787etdd1" xmlns="http://www.w3.org/2000/svg" xmlns:xlink="http://www.w3.org/1999/xlink" viewBox="0 0 610.629000 687.694000" shape-rendering="geometricPrecision" text-rendering="geometricPrecision"><style><![CDATA[#essiv787etdd4 {animation: essiv787etdd4__sz 10000ms linear infinite normal forwards}@keyframes essiv787etdd4__sz { 0% {width: 83.700000px;height: 83.700000px} 3% {width: 83.700000px;height: 12.975838px} 6% {width: 83.700000px;height: 83.700000px} 100% {width: 83.700000px;height: 83.700000px} }#essiv787etdd4_to {animation: essiv787etdd4_to__to 10000ms linear infinite normal forwards}@keyframes essiv787etdd4_to__to { 0% {transform: translate(1288.109985px,451.083008px)} 3% {transform: translate(1287.815225px,493.048072px)} 6% {transform: translate(1288.109985px,451.083008px)} 100% {transform: translate(1288.109985px,451.083008px)} }]]></style><g id="essiv787etdd2" transform="matrix(1 0 0 1 -915.32702636718750 -175.08000183105469)"><rect id="essiv787etdd3" width="83.700000" height="298.767000" rx="0" ry="0" transform="matrix(1 0 0 1 1076.62695312500000 451.08300781250000)" fill="rgb(23,203,148)" stroke="none" stroke-width="1"/><g id="essiv787etdd4_to" transform="translate(1288.109985,451.083008)"><rect id="essiv787etdd4" width="83.700000" height="83.700000" rx="0" ry="0" transform="translate(0,-0)" fill="rgb(23,203,148)" stroke="none" stroke-width="1"/></g><g id="essiv787etdd5" transform="matrix(1 0 0 1 915.32702636718750 175.08000183105469)"><g id="essiv787etdd6"><path id="essiv787etdd7" d="M305.350000,687.694000L305.350000,687.694000L305.315000,687.674000L305.280000,687.693000L305.249000,687.638000L0,518.435000L0.032000,518.378000L0.032000,169.316000L0,169.260000L305.247000,0.057000L305.279000,0L305.315000,0.019000L305.350000,0L305.382000,0.057000L610.629000,169.257000L610.598000,169.312000L610.598000,518.378000L610.629000,518.433000L305.383000,687.633000L305.351000,687.691000ZM305.314000,595.203000L305.314000,595.203000L305.341000,595.219000L305.366000,595.175000L528.516000,471.480000L528.493000,471.439000L528.493000,216.255000L528.516000,216.213000L305.365000,92.518000L305.341000,92.475000L305.315000,92.490000L305.288000,92.475000L305.264000,92.518000L82.112000,216.214000L82.135000,216.255000L82.135000,471.439000L82.112000,471.480000L305.265000,595.180000L305.288000,595.221000L305.313000,595.207000Z" fill="rgb(23,203,148)" stroke="none" stroke-width="1"/></g><rect id="essiv787etdd8" width="82.450000" height="154.133000" rx="0" ry="0" transform="matrix(-1 0 -0 -1 541.69702148437500 154.13400268554688)" fill="rgb(23,203,148)" stroke="none" stroke-width="1"/></g></g></svg>